<svg width="320" height="320" viewBox="0 0 320 320" fill="none" xmlns="http://www.w3.org/2000/svg">
<rect width="320" height="320" fill="#764DFF"/>
<path d="M158.749 289C136.819 289 118.227 285.307 102.972 277.922C87.7169 270.299 74.7263 260.532 64 248.62L99.7542 212.529C116.678 231.587 137.534 241.116 162.324 241.116C175.672 241.116 185.564 238.377 192 232.898C198.436 227.418 201.654 220.152 201.654 211.1C201.654 204.191 199.747 198.474 195.933 193.947C192.119 189.183 184.372 185.967 172.693 184.299L148.022 181.083C121.564 177.748 102.138 169.767 89.743 157.141C77.5866 144.515 71.5084 127.72 71.5084 106.756C71.5084 95.5596 73.6536 85.3158 77.9441 76.0249C82.2346 66.7341 88.3129 58.7535 96.1788 52.0831C104.283 45.4127 114.056 40.2909 125.497 36.7175C137.177 32.9058 150.406 31 165.184 31C184.015 31 200.581 33.9778 214.883 39.9335C229.184 45.8892 241.46 54.5845 251.71 66.0194L215.598 102.468C209.639 95.5596 202.369 89.9612 193.788 85.6731C185.445 81.1468 174.838 78.8837 161.966 78.8837C149.81 78.8837 140.752 81.0277 134.793 85.3158C128.834 89.6039 125.855 95.5596 125.855 103.183C125.855 111.759 128.119 117.953 132.648 121.765C137.415 125.576 145.043 128.316 155.531 129.983L180.201 133.914C205.944 137.964 225.013 145.945 237.408 157.856C249.803 169.529 256 186.205 256 207.884C256 219.795 253.855 230.753 249.564 240.759C245.274 250.765 238.957 259.341 230.615 266.488C222.51 273.634 212.38 279.233 200.223 283.283C188.067 287.094 174.242 289 158.749 289Z" fill="white"/>
</svg>
